. 
  
http://www.torrenting.com/        :     Greatest Movie Tracker on The Net!!!
 
http://www.Torrenting.com          :     Once & For all ;)


               www . Torrenting . Com 

(((((((((((((= Enjoy No RAR releases =))))))))))))))))))))


...................................NFO:....................................

.








































          
          
              
              
                    
                    
                    
                    

The.Exterminator.1980.UNRATED.Directors.Cut.DVDRiP.x264-SiC

Poster:
[img]http://img842.imageshack.us/img842/2228/exterminatorposter.jpg[/img]

IMDB Link:
http://www.imdb.com/title/tt0080707/

Description:
When John Eastland's best friend, Michael Jefferson, is mugged and left permanently crippled, he decides to do something about it. Jefferson had saved Eastland's life in Vietnam and now it's time for Eastland to get revenge for his friend. Using his old Army gear he sets out on a crusade to clean up the streets of New York using the name "The Exterminator." 

MediaInfo:
General
Unique ID                        : 239265280299189627765306788608616992530 (0xB400D119AD2B8A819D90892B82748F12)
Complete name                    : The.Exterminator.1980.UNRATED.Directors.Cut.DVDRiP.x264-SiC.mkv
Format                           : Matroska
File size                        : 1.18 GiB
Duration                         : 1h 42mn
Overall bit rate                 : 1 657 Kbps
Encoded date                     : UTC 2011-08-25 02:30:36
Writing application              : mkvmerge v4.8.0 ('I Got The...') built on May 24 2011 03:12:58
Writing library                  : libebml v1.2.0 + libmatroska v1.1.0

Video
ID                               : 1
Format                           : AVC
Format/Info                      : Advanced Video Codec
Format profile                   : High@L3.0
Format settings, CABAC           : Yes
Format settings, ReFrames        : 4 frames
Format settings, GOP             : M=4, N=32
Codec ID                         : V_MPEG4/ISO/AVC
Duration                         : 1h 42mn
Bit rate                         : 1 463 Kbps
Width                            : 720 pixels
Height                           : 400 pixels
Display aspect ratio             : 16:9
Frame rate                       : 23.976 fps
Color space                      : YUV
Chroma subsampling               : 4:2:0
Bit depth                        : 8 bits
Scan type                        : Progressive
Bits/(Pixel*Frame)               : 0.212
Stream size                      : 1.02 GiB (86%)
Writing library                  : x264 core 115 r1995 c1e60b9
Encoding settings                : cabac=1 / ref=3 / deblock=1:0:0 / analyse=0x3:0x113 / me=hex / subme=7 / psy=1 / psy_rd=1.00:0.00 / mixed_ref=1 / me_range=16 / chroma_me=1 / trellis=1 / 8x8dct=1 / cqm=0 / deadzone=21,11 / fast_pskip=1 / chroma_qp_offset=-2 / threads=3 / sliced_threads=0 / nr=0 / decimate=1 / interlaced=0 / bluray_compat=0 / constrained_intra=0 / bframes=3 / b_pyramid=2 / b_adapt=1 / b_bias=0 / direct=1 / weightb=1 / open_gop=0 / weightp=2 / keyint=250 / keyint_min=23 / scenecut=40 / intra_refresh=0 / rc_lookahead=40 / rc=2pass / mbtree=1 / bitrate=1463 / ratetol=1.0 / qcomp=0.60 / qpmin=0 / qpmax=69 / qpstep=4 / cplxblur=20.0 / qblur=0.5 / ip_ratio=1.40 / aq=1:1.00
Language                         : English

Audio
ID                               : 2
Format                           : AC-3
Format/Info                      : Audio Coding 3
Mode extension                   : CM (complete main)
Codec ID                         : A_AC3
Duration                         : 1h 42mn
Bit rate mode                    : Constant
Bit rate                         : 192 Kbps
Channel(s)                       : 2 channels
Channel positions                : Front: L R
Sampling rate                    : 48.0 KHz
Bit depth                        : 16 bits
Compression mode                 : Lossy
Delay relative to video          : 250ms
Stream size                      : 140 MiB (12%)

Screenshots:
[img]http://img51.imageshack.us/img51/5066/vlcsnap2011082513h02m13.png[/img]
[img]http://img192.imageshack.us/img192/249/vlcsnap2011082513h02m21.png[/img]
[img]http://img600.imageshack.us/img600/8674/vlcsnap2011082513h02m30.png[/img]
[img]http://img810.imageshack.us/img810/6857/vlcsnap2011082513h02m48.png[/img]
[img]http://img846.imageshack.us/img846/1733/vlcsnap2011082513h03m06.png[/img]

Note :   This is a new "Unrated Directors' Cut" of this classic revenge film, set to be released on Blu Ray and DVD on the 13th of September. I don't know what's different about this cut versus previous ones, but frmo what I'm told it's supposed to be much better. 

Source: Our own

Encoder: thefuzz

Enjoy!

Respects to CaptainHomey, Cyanide, CM8, Rx, THC, ELEKTRI4KA, 
Killerhz, PA, YeFsTe, BoxSlots, MrRep and everyone in the struggle...